PathFileType	4	(X/Y/Z)	C:/Users/beibeiliu/ov580/test_trc/User2\sequence.25_training_dense_left.trc
DataRate	CameraRate	NumFrames	NumMarkers	Units	OrigDataRate	OrigDataStartFrame	OrigNumFrames
120	120	9	19	mm	120	205	272
Frame#	Time	ThumbCMC			ThumbMCP			ThumbIP			ThumbTip			IndexMCP			IndexPIP			IndexTip			MiddleMCP			MiddlePIP			MiddleTip			RingMCP			RingPIP			RingTip			PinkyMCP			PinkyPIP			PinkyTip			BackHand1			BackHand2			BackHand3	
		X0	Y0	Z0	X1	Y1	Z1	X2	Y2	Z2	X3	Y3	Z3	X4	Y4	Z4	X5	Y5	Z5	X6	Y6	Z6	X7	Y7	Z7	X8	Y8	Z8	X9	Y9	Z9	X10	Y10	Z10	X11	Y11	Z11	X12	Y12	Z12	X13	Y13	Z13	X14	Y14	Z14	X15	Y15	Z15	X16	Y16	Z16	X17	Y17	Z17	X18	Y18	Z18	
204	1.7	-138.82	-24.2804	101.936	-116.876	-17.8271	78.3085	-101.18	-12.0766	52.9762	-86.2253	-5.24736	29.4767	-135.479	6.66423	21.5464	-129.253	-16.4978	0.434835	-123.765	-43.8529	24.8633	-157.514	-3.45359	11.8379	-142.42	-31.6873	-4.61882	-145.465	-52.1269	31.5216	-172.731	-13.7931	9.17286	-157.974	-40.9984	-2.55998	-157.391	-56.1192	26.8848	-198.535	-18.2369	22.9877	-193.937	-11.7891	-4.39061	-190.899	-5.28915	-27.7657	-194.302	-9.41198	68.9758	-203.236	-16.4204	100.715	-168.7	-1.54265	95.339	
205	1.70833	-134.345	-25.6446	102.799	-116.426	-23.4167	80.9275	-100.672	-13.0643	49.055	-84.8043	-10.3172	31.2906	-137.326	3.49638	25.7344	-124.428	-17.9944	0.744695	-124.385	-46.3921	22.6754	-153.355	-3.74964	12.7106	-143.934	-35.3492	-4.48053	-145.317	-53.7928	33.398	-174.7	-15.5143	5.33012	-160.406	-43.0585	-4.48301	-154.822	-56.4791	26.2338	-195.313	-15.436	20.0393	-192.564	-12.564	-4.40146	-186.23	-3.97721	-24.2425	-194.29	-8.19666	69.3545	-206.979	-18.2533	99.7664	-168.989	-3.87419	94.8549	
206	1.71667	-135.774	-28.5875	100.84	-117.127	-25.969	78.3327	-101.97	-17.9408	48.7347	-84.346	-12.3452	27.3826	-138.823	0.15256	23.4726	-125.361	-22.8566	0.543958	-123.685	-49.3793	23.5233	-152.067	-6.81174	11.0989	-145.267	-38.5813	-4.051	-143.981	-55.7925	31.3434	-175.75	-16.7529	8.20035	-159.944	-42.8292	-5.23051	-160.074	-59.1987	28.7935	-196.811	-20.1727	23.1792	-190.493	-13.3753	-4.55614	-183.585	-3.398	-28.3004	-192.979	-9.31813	69.1695	-206.498	-18.4383	101.977	-164.511	-5.10214	93.0252	
207	1.725	-137.685	-31.7819	102.058	-117.12	-29.3033	77.8187	-100.417	-19.4582	47.7668	-84.8082	-17.6192	29.6204	-136.773	-1.71575	21.2332	-126.179	-22.8371	0.0750087	-125.976	-50.6109	21.0876	-154.809	-9.50474	9.64235	-145.441	-39.6771	-5.36328	-147.186	-59.2463	31.9982	-171.825	-18.2682	7.74277	-165.002	-45.2417	-6.18056	-159.107	-60.5029	25.7558	-199.971	-20.8908	19.2642	-194.748	-15.3414	-5.41251	-188.263	-8.81479	-30.1812	-193.809	-12.4506	69.6996	-204.917	-17.2561	99.6135	-167.409	-8.4024	95.7519	
208	1.73333	-138.394	-34.744	101.898	-121.45	-30.5448	74.9481	-100.325	-22.7224	46.6918	-86.5381	-20.0641	24.2217	-140.79	-5.12628	19.6363	-127.238	-26.8891	-2.44398	-128.468	-54.2291	19.0408	-158.549	-11.3333	10.0547	-146.802	-42.7825	-5.14938	-150.501	-60.9674	33.6127	-179.338	-21.5628	6.55	-162.344	-49.0785	-3.99982	-162.247	-63.7944	28.8982	-197.611	-21.6457	20.1599	-193.217	-17.5274	-8.24494	-189.759	-11.9588	-26.4327	-196.278	-15.5991	70.1876	-207.04	-20.672	100.005	-170.137	-9.93712	92.7381	
209	1.74167	-139.897	-35.8194	99.3213	-121.827	-34.2996	75.4874	-103.938	-24.5791	41.9766	-91.4273	-23.9049	23.42	-142.306	-7.48617	20.7255	-134.353	-30.2485	-3.62022	-134.354	-58.409	19.6696	-163.045	-14.862	7.464	-151.625	-48.2586	-6.74185	-148.685	-63.3501	31.073	-179.343	-23.641	6.91026	-166.476	-50.7008	-6.92776	-164.193	-65.9442	29.0264	-203.477	-25.4074	18.5112	-200.023	-21.3035	-8.0409	-192.655	-13.7018	-31.9664	-199.286	-15.5629	68.0722	-203.791	-19.0234	96.7096	-171.689	-9.76559	92.7104	
210	1.75	-140.928	-34.8644	94.884	-124.128	-36.7547	71.0699	-108.62	-29.9383	40.4683	-92.0682	-27.7561	19.7032	-141.706	-10.2021	14.1854	-135.09	-36.7188	-6.19404	-138.233	-61.3379	17.3277	-164.185	-18.6025	4.09312	-155.031	-48.2374	-8.75068	-155.934	-65.6368	32.1786	-185.318	-28.7317	3.99273	-171.889	-53.1359	-6.77421	-168.088	-68.1903	26.8585	-208.552	-26.7635	19.5055	-203.252	-23.2751	-8.16705	-196.022	-16.0237	-30.1728	-199.505	-15.1803	69.9462	-207.874	-22.1876	100.86	-169.243	-10.2721	87.5388	
211	1.75833	-144.047	-38.9925	93.533	-127.928	-38.2146	65.3558	-108.957	-33.8307	35.9633	-97.985	-35.3615	18.1413	-145.668	-13.8145	10.8791	-143.663	-38.7796	-8.41272	-143.33	-65.785	19.4873	-170.558	-21.6499	3.87273	-161.591	-52.5814	-10.1905	-161.496	-68.8872	30.801	-189.493	-32.446	0.486497	-177.967	-61.234	-6.27957	-173.752	-71.1306	29.8957	-210.087	-27.1371	17.2935	-206.955	-26.4231	-5.58768	-202.11	-18.7152	-27.932	-204.105	-16.5642	65.5074	-208.876	-21.0901	96.7712	-168.133	-9.90358	87.4228	
212	1.76667	-140.455	-38.9331	91.0001	-124.887	-42.4779	66.4441	-113.058	-38.3683	32.333	-102.712	-41.1148	12.6756	-151.372	-18.4944	8.78961	-148.237	-42.9336	-11.1156	-145.872	-68.0292	16.7617	-170.746	-24.6026	4.50188	-170.293	-58.9456	-9.90294	-163.381	-72.365	28.2032	-193.35	-34.3422	2.91921	-183.019	-64.8775	-4.83782	-178.294	-74.585	26.3027	-213.485	-32.0184	22.1691	-212.155	-28.7176	-5.51844	-212.502	-23.9799	-28.3424	-206.443	-19.4707	66.6245	-210.22	-20.6522	99.767	-173.958	-14.5621	83.3758	
